<?xml version="1.0" standalone="no"?><!DOCTYPE svg PUBLIC "-//W3C//DTD SVG 1.1//EN" "http://www.w3.org/Graphics/SVG/1.1/DTD/svg11.dtd"><svg t="1585816846586" class="icon" viewBox="0 0 1024 1024" version="1.1" xmlns="http://www.w3.org/2000/svg" p-id="3444" xmlns:xlink="http://www.w3.org/1999/xlink" width="200" height="200"><defs><style type="text/css"></style></defs><path d="M512 512m-512 0a512 512 0 1 0 1024 0 512 512 0 1 0-1024 0Z" fill="#049BFF" p-id="3445"></path><path d="M576.853333 860.16h-133.12v-122.88h133.12v122.88z m-13.653333-109.226667h-105.813333v51.2h105.813333v-51.2z" fill="#050408" p-id="3446"></path><path d="M512 0c167.0144 0 315.35104 79.967573 408.81152 203.70432 0.525653 7.30112 0.78848 14.660267 0.78848 22.074027 0 187.00288-130.72384 262.7584-338.766507 504.13568L576.505173 737.28l-133.137066-0.04096C228.481707 491.63264 98.986667 414.464 98.986667 225.778347c0-5.717333 0.157013-11.400533 0.464213-17.056427C192.662187 82.13504 342.739627 0 512 0z" fill="#EA736A" p-id="3447"></path><path d="M512 0c100.59776 0 194.423467 29.013333 273.558187 79.127893C802.781867 123.84256 812.373333 173.492907 812.373333 225.778347c0 187.00288-96.003413 262.7584-248.804693 504.13568L558.91968 737.28l-97.778347-0.04096C303.31904 491.63264 208.213333 414.464 208.213333 225.778347c0-51.15904 9.181867-99.792213 25.716054-143.745707C313.992533 30.132907 409.47712 0 512 0z" fill="#FFFFFF" p-id="3448"></path><path d="M271.356587 59.968853c-20.370773 49.001813-31.870293 105.198933-31.870294 165.823147 0 188.900693 133.645653 334.1824 223.085227 511.488C303.854933 491.66336 208.213333 414.487893 208.213333 225.792c0-51.213653 9.253547-99.90144 25.914027-143.89248a508.672 508.672 0 0 1 35.566933-21.046613l1.662294-0.887467z" fill="#FFDC37" p-id="3449"></path><path d="M512 0c54.285653 0 106.5984 8.448 155.6992 24.10496C687.947093 81.210027 699.733333 150.07744 699.733333 224.180907c0 69.587627-8.021333 125.82912-25.429333 184.538453l-1.93536 6.406827-1.553067 5.00736c-10.820267 34.4576-24.046933 68.386133-48.305493 125.791573l-26.514773 62.487893-3.310934 7.840427-3.18464 7.5776-6.30784 15.107413a3943.973547 3943.973547 0 0 0-37.290666 92.71296l-2.177707 5.628587-63.750827-0.04096-3.072-7.77216-2.4576-6.18496c-11.055787-27.784533-22.2208-54.95808-34.638506-84.48l-9.120427-21.551787c-7.86432-18.527573-18.302293-43.004587-23.8592-56.057173l-7.611733-17.93024-4.1984-10.01472c-21.152427-50.59584-33.634987-83.729067-43.854507-117.572267l-0.866987-2.90816C332.458667 352.795307 324.266667 295.41376 324.266667 224.180907c0-74.103467 11.78624-142.97088 32.037546-200.072534C405.398187 8.448 457.714347 0 512 0z" fill="#0C28F8" p-id="3450"></path><path d="M512 0c15.977813 0 31.78496 0.730453 47.387307 2.164053C568.173227 63.25248 573.44 141.052587 573.44 225.778347c0 185.115307-19.667627 261.215573-51.0464 496.872106l-1.93536 14.629547-20.442453-0.04096-1.962667-14.533973c-31.488-231.81312-50.517333-310.408533-50.899627-491.298134L447.146667 225.778347c0-84.575573 5.246293-162.256213 14.00832-223.2832C477.88032 0.843093 494.841173 0 512 0z" fill="#EA736A" p-id="3451"></path></svg>