<?xml version="1.0" standalone="no"?><!DOCTYPE svg PUBLIC "-//W3C//DTD SVG 1.1//EN" "http://www.w3.org/Graphics/SVG/1.1/DTD/svg11.dtd"><svg t="1585816829895" class="icon" viewBox="0 0 1024 1024" version="1.1" xmlns="http://www.w3.org/2000/svg" p-id="3028" xmlns:xlink="http://www.w3.org/1999/xlink" width="200" height="200"><defs><style type="text/css"></style></defs><path d="M512 512m-512 0a512 512 0 1 0 1024 0 512 512 0 1 0-1024 0Z" fill="#049BFF" p-id="3029"></path><path d="M540.49792 329.91232c90.299733 131.556693 211.776853 244.401493 364.424533 338.5344a1584.19968 1584.19968 0 0 0 77.912747 44.987733C904.618667 896.06144 723.2512 1024 512 1024c-217.623893 0-403.534507-135.775573-477.648213-327.236267 15.530667-9.260373 30.788267-18.69824 45.779626-28.317013 146.705067-94.12608 268.038827-205.585067 363.997867-334.373547l3.085653-4.164266h93.282987z" fill="#0C28F8" p-id="3030"></path><path d="M540.49792 329.91232c84.841813 123.603627 197.20192 230.690133 337.08032 321.25952l-138.397013-81.701547-9.270614 11.625814-21.930666-18.40128v31.604053l-74.00448-63.208107 46.226773 122.361174-134.485333-107.400534v-37.311146L445.41952 585.386667l-13.410987-27.14624-35.2256 86.30272-9.485653-81.84832h-19.17952v-31.604054L300.7488 594.29888v-36.058453L226.747733 585.386667v-23.709014c84.401493-69.802667 157.89056-147.05664 220.4672-231.765333z" fill="#F9F9F9" p-id="3031"></path><path d="M734.805333 50.8928c105.5232 51.080533 190.85312 137.314987 240.779947 243.490133C945.384107 350.7712 885.917013 389.12 817.493333 389.12c-98.9696 0-179.2-80.2304-179.2-179.2 0-68.29056 38.1952-127.658667 94.39232-157.9008l2.11968-1.1264z" fill="#EA736A" p-id="3032"></path><path d="M884.053333 211.626667c22.41536 0 41.6768 13.503147 50.090667 32.815786a44.530347 44.530347 0 0 1 7.9872-10.267306 509.467307 509.467307 0 0 1 31.429973 55.954773l-38.157653 0.006827a44.537173 44.537173 0 0 1-1.262933-2.0992c-0.3072 0.70656-0.631467 1.406293-0.965974 2.095786h-161.723733c-0.023893-0.5632-0.037547-1.133227-0.037547-1.706666 0-21.67808 17.575253-39.253333 39.253334-39.253334 7.307947 0 14.148267 1.9968 20.00896 5.474987C835.986773 230.055253 857.86624 211.626667 884.053333 211.626667z" fill="#F9F9F9" p-id="3033"></path></svg>