<?xml version="1.0" standalone="no"?><!DOCTYPE svg PUBLIC "-//W3C//DTD SVG 1.1//EN" "http://www.w3.org/Graphics/SVG/1.1/DTD/svg11.dtd"><svg t="1585816837850" class="icon" viewBox="0 0 1024 1024" version="1.1" xmlns="http://www.w3.org/2000/svg" p-id="3159" xmlns:xlink="http://www.w3.org/1999/xlink" width="200" height="200"><defs><style type="text/css"></style></defs><path d="M512 512m-512 0a512 512 0 1 0 1024 0 512 512 0 1 0-1024 0Z" fill="#049BFF" p-id="3160"></path><path d="M296.584533 221.866667l567.73632 179.28192 13.0048 469.572266C784.418133 965.3248 655.06304 1024 512 1024c-76.9536 0-149.940907-16.97792-215.422293-47.387307L296.584533 221.866667z" fill="#FFF8EB" p-id="3161"></path><path d="M296.584533 221.866667l-0.006826 754.746026c-60.555947-28.125867-114.694827-67.744427-159.614294-116.053333l15.7696-493.462187L296.584533 221.866667z" fill="#D7C8AC" p-id="3162"></path><path d="M599.702187 535.893333c6.67648 0 13.329067 0.791893 19.817813 2.362027 61.0816 14.779733 104.106667 69.454507 104.106667 132.297387l0.006826 300.168533c-62.53568 27.869867-131.689813 43.5712-204.45184 44.096853l-3.76832 0.013654v-394.6496C515.413333 573.631147 553.151147 535.893333 599.702187 535.893333z" fill="#FFDC37" p-id="3163"></path><path d="M588.977493 545.713493c3.280213 0.382293 6.539947 0.955733 9.762134 1.713494 62.815573 14.75584 107.216213 70.795947 107.216213 135.3216l0.006827 303.233706c-58.733227 24.064-122.934613 37.522773-190.221654 38.004054L512 1024V632.378027c0-44.714667 33.631573-81.575253 76.977493-86.664534z" fill="#080455" p-id="3164"></path><path d="M531.95776 576.832853c4.027733 0.365227 8.02816 1.017173 11.97056 1.9456 62.815573 14.752427 107.219627 70.792533 107.219627 135.3216l0.003413 290.7648c-42.9056 12.086613-88.091307 18.725547-134.772053 19.114667L512 1024V632.378027a86.90688 86.90688 0 0 1 19.95776-55.545174z" fill="#049BFF" p-id="3165"></path><path d="M217.890133 690.261333a17.69472 17.69472 0 0 1 17.681067 16.9472l0.017067 0.750934v235.08992a513.942187 513.942187 0 0 1-61.026987-45.970774l0.013653-125.098666a110.4896 110.4896 0 0 1 30.50496-76.229974 17.69472 17.69472 0 0 1 12.81024-5.48864z" fill="#FFF8EB" p-id="3166"></path><path d="M228.092587 693.497173a17.677653 17.677653 0 0 1 7.4752 13.612374l0.02048 0.846506v235.093334a513.532587 513.532587 0 0 1-41.64608-29.7984l0.01024-140.60544a110.4896 110.4896 0 0 1 29.293226-74.93632l1.215147-1.293654c1.04448-1.092267 2.21184-2.041173 3.474773-2.822826l0.157014-0.095574z" fill="#050408" p-id="3167"></path><path d="M150.309547 491.008l146.274986-114.03264 570.34752 135.048533 37.51936-12.0832L296.584533 345.787733 119.466667 481.28z" fill="#080455" p-id="3168"></path><path d="M119.466667 449.911467V481.28l177.117866-135.488853 607.86688 154.146133V481.28L296.584533 313.658027z" fill="#FFDC37" p-id="3169"></path><path d="M141.008213 369.62304l10.67008 10.837333L296.584533 244.589227l568.531627 171.117226 27.286187-8.9088L296.584533 221.866667z" fill="#080455" p-id="3170"></path><path d="M329.212587 472.951467v87.79776l149.1456 34.87744V512zM329.212587 609.477973L476.8256 645.12v377.69216a509.433173 509.433173 0 0 1-147.626667-32.4096l0.013654-380.924587zM753.855147 570.9312v77.6192l99.027626 22.685013v-77.2096zM754.346667 686.08l98.536106 25.914027 0.24576 181.818026A513.29024 513.29024 0 0 1 754.346667 963.126613V686.08z" fill="#EA736A" p-id="3171"></path><path d="M275.44576 482.030933v92.3136l-113.220267 65.119574v-78.71488z" fill="#050408" p-id="3172"></path><path d="M141.008213 369.62304v-23.831893L296.587947 197.973333l595.8144 189.248854v19.575466L296.584533 221.866667z" fill="#FFDC37" p-id="3173"></path></svg>